<mxfile host="Electron" agent="Mozilla/5.0 (Windows NT 10.0; Win64; x64) AppleWebKit/537.36 (KHTML, like Gecko) draw.io/24.7.8 Chrome/128.0.6613.36 Electron/32.0.1 Safari/537.36" version="24.7.8">
  <diagram name="Страница — 1" id="QD4RwM5OdnTgU_zcei_q">
    <mxGraphModel dx="1105" dy="654" grid="1" gridSize="10" guides="1" tooltips="1" connect="1" arrows="1" fold="1" page="1" pageScale="1" pageWidth="827" pageHeight="1169" math="0" shadow="0">
      <root>
        <mxCell id="0" />
        <mxCell id="1" parent="0" />
        <mxCell id="_rt9f24KzkN2ATSVfUt4-1" value="&lt;font face=&quot;Times New Roman&quot;&gt;Подсистема хранение и обрабтки информации&lt;/font&gt;&lt;div&gt;&lt;font face=&quot;jINPl_FkdeVjPJiNKjRk&quot;&gt;(База данных)&lt;/font&gt;&lt;/div&gt;" style="strokeWidth=2;html=1;shape=mxgraph.flowchart.database;whiteSpace=wrap;verticalAlign=middle;spacingTop=19;" vertex="1" parent="1">
          <mxGeometry x="827" y="540" width="170" height="90" as="geometry" />
        </mxCell>
        <mxCell id="_rt9f24KzkN2ATSVfUt4-7" style="edgeStyle=orthogonalEdgeStyle;rounded=0;orthogonalLoop=1;jettySize=auto;html=1;entryX=0;entryY=0.5;entryDx=0;entryDy=0;entryPerimeter=0;" edge="1" parent="1" source="_rt9f24KzkN2ATSVfUt4-3" target="_rt9f24KzkN2ATSVfUt4-1">
          <mxGeometry relative="1" as="geometry">
            <Array as="points">
              <mxPoint x="730" y="390" />
              <mxPoint x="730" y="585" />
            </Array>
          </mxGeometry>
        </mxCell>
        <mxCell id="_rt9f24KzkN2ATSVfUt4-3" value="&lt;font face=&quot;Times New Roman&quot;&gt;Подсистема управление (Web-приложение back-end)&lt;/font&gt;" style="rounded=0;whiteSpace=wrap;html=1;align=left;verticalAlign=bottom;spacingLeft=5;" vertex="1" parent="1">
          <mxGeometry x="90" y="40" width="550" height="670" as="geometry" />
        </mxCell>
        <mxCell id="_rt9f24KzkN2ATSVfUt4-8" style="edgeStyle=orthogonalEdgeStyle;rounded=0;orthogonalLoop=1;jettySize=auto;html=1;exitX=0;exitY=0.5;exitDx=0;exitDy=0;" edge="1" parent="1" source="_rt9f24KzkN2ATSVfUt4-4" target="_rt9f24KzkN2ATSVfUt4-3">
          <mxGeometry relative="1" as="geometry">
            <Array as="points">
              <mxPoint x="730" y="215" />
              <mxPoint x="730" y="375" />
            </Array>
          </mxGeometry>
        </mxCell>
        <mxCell id="_rt9f24KzkN2ATSVfUt4-4" value="&lt;span style=&quot;font-family: &amp;quot;Times New Roman&amp;quot;;&quot;&gt;Подсистема отображения (Web-приложение front-end)&lt;/span&gt;" style="rounded=0;whiteSpace=wrap;html=1;align=left;verticalAlign=bottom;spacingLeft=5;" vertex="1" parent="1">
          <mxGeometry x="827" y="40" width="413" height="440" as="geometry" />
        </mxCell>
        <mxCell id="_rt9f24KzkN2ATSVfUt4-51" style="edgeStyle=orthogonalEdgeStyle;rounded=0;orthogonalLoop=1;jettySize=auto;html=1;entryX=0;entryY=0.5;entryDx=0;entryDy=0;" edge="1" parent="1" source="_rt9f24KzkN2ATSVfUt4-5" target="_rt9f24KzkN2ATSVfUt4-11">
          <mxGeometry relative="1" as="geometry">
            <Array as="points">
              <mxPoint x="195" y="190" />
            </Array>
          </mxGeometry>
        </mxCell>
        <mxCell id="_rt9f24KzkN2ATSVfUt4-5" value="&lt;font face=&quot;Times New Roman&quot;&gt;Модуль регистрации&lt;/font&gt;" style="rounded=1;whiteSpace=wrap;html=1;" vertex="1" parent="1">
          <mxGeometry x="130" y="65" width="130" height="60" as="geometry" />
        </mxCell>
        <mxCell id="_rt9f24KzkN2ATSVfUt4-10" style="edgeStyle=orthogonalEdgeStyle;rounded=0;orthogonalLoop=1;jettySize=auto;html=1;" edge="1" parent="1" source="_rt9f24KzkN2ATSVfUt4-6" target="_rt9f24KzkN2ATSVfUt4-5">
          <mxGeometry relative="1" as="geometry" />
        </mxCell>
        <mxCell id="_rt9f24KzkN2ATSVfUt4-28" style="edgeStyle=orthogonalEdgeStyle;rounded=0;orthogonalLoop=1;jettySize=auto;html=1;" edge="1" parent="1" source="_rt9f24KzkN2ATSVfUt4-6" target="_rt9f24KzkN2ATSVfUt4-11">
          <mxGeometry relative="1" as="geometry" />
        </mxCell>
        <mxCell id="_rt9f24KzkN2ATSVfUt4-6" value="&lt;font face=&quot;Times New Roman&quot;&gt;Модуль авторизации&lt;/font&gt;" style="rounded=1;whiteSpace=wrap;html=1;" vertex="1" parent="1">
          <mxGeometry x="295" y="65" width="130" height="60" as="geometry" />
        </mxCell>
        <mxCell id="_rt9f24KzkN2ATSVfUt4-30" style="edgeStyle=orthogonalEdgeStyle;rounded=0;orthogonalLoop=1;jettySize=auto;html=1;entryX=0;entryY=0.5;entryDx=0;entryDy=0;" edge="1" parent="1" source="_rt9f24KzkN2ATSVfUt4-11" target="_rt9f24KzkN2ATSVfUt4-15">
          <mxGeometry relative="1" as="geometry" />
        </mxCell>
        <mxCell id="_rt9f24KzkN2ATSVfUt4-31" style="edgeStyle=orthogonalEdgeStyle;rounded=0;orthogonalLoop=1;jettySize=auto;html=1;entryX=0;entryY=0.5;entryDx=0;entryDy=0;" edge="1" parent="1" source="_rt9f24KzkN2ATSVfUt4-11" target="_rt9f24KzkN2ATSVfUt4-14">
          <mxGeometry relative="1" as="geometry">
            <Array as="points">
              <mxPoint x="360" y="250" />
              <mxPoint x="275" y="250" />
              <mxPoint x="275" y="390" />
            </Array>
          </mxGeometry>
        </mxCell>
        <mxCell id="_rt9f24KzkN2ATSVfUt4-33" style="edgeStyle=orthogonalEdgeStyle;rounded=0;orthogonalLoop=1;jettySize=auto;html=1;entryX=1;entryY=0.5;entryDx=0;entryDy=0;" edge="1" parent="1" source="_rt9f24KzkN2ATSVfUt4-11" target="_rt9f24KzkN2ATSVfUt4-20">
          <mxGeometry relative="1" as="geometry">
            <Array as="points">
              <mxPoint x="360" y="250" />
              <mxPoint x="275" y="250" />
              <mxPoint x="275" y="310" />
            </Array>
          </mxGeometry>
        </mxCell>
        <mxCell id="_rt9f24KzkN2ATSVfUt4-36" style="edgeStyle=orthogonalEdgeStyle;rounded=0;orthogonalLoop=1;jettySize=auto;html=1;entryX=0;entryY=0.5;entryDx=0;entryDy=0;" edge="1" parent="1" source="_rt9f24KzkN2ATSVfUt4-11" target="_rt9f24KzkN2ATSVfUt4-17">
          <mxGeometry relative="1" as="geometry">
            <Array as="points">
              <mxPoint x="360" y="250" />
              <mxPoint x="275" y="250" />
              <mxPoint x="275" y="550" />
            </Array>
          </mxGeometry>
        </mxCell>
        <mxCell id="_rt9f24KzkN2ATSVfUt4-37" style="edgeStyle=orthogonalEdgeStyle;rounded=0;orthogonalLoop=1;jettySize=auto;html=1;entryX=0;entryY=0.5;entryDx=0;entryDy=0;" edge="1" parent="1" source="_rt9f24KzkN2ATSVfUt4-11" target="_rt9f24KzkN2ATSVfUt4-18">
          <mxGeometry relative="1" as="geometry">
            <Array as="points">
              <mxPoint x="360" y="250" />
              <mxPoint x="275" y="250" />
              <mxPoint x="275" y="625" />
            </Array>
          </mxGeometry>
        </mxCell>
        <mxCell id="_rt9f24KzkN2ATSVfUt4-42" style="edgeStyle=orthogonalEdgeStyle;rounded=0;orthogonalLoop=1;jettySize=auto;html=1;entryX=1;entryY=0.5;entryDx=0;entryDy=0;" edge="1" parent="1" source="_rt9f24KzkN2ATSVfUt4-11" target="_rt9f24KzkN2ATSVfUt4-16">
          <mxGeometry relative="1" as="geometry">
            <Array as="points">
              <mxPoint x="360" y="250" />
              <mxPoint x="275" y="250" />
              <mxPoint x="275" y="390" />
            </Array>
          </mxGeometry>
        </mxCell>
        <mxCell id="_rt9f24KzkN2ATSVfUt4-47" style="edgeStyle=orthogonalEdgeStyle;rounded=0;orthogonalLoop=1;jettySize=auto;html=1;entryX=0;entryY=0.5;entryDx=0;entryDy=0;" edge="1" parent="1" source="_rt9f24KzkN2ATSVfUt4-11" target="_rt9f24KzkN2ATSVfUt4-29">
          <mxGeometry relative="1" as="geometry">
            <Array as="points">
              <mxPoint x="360" y="250" />
              <mxPoint x="275" y="250" />
              <mxPoint x="275" y="470" />
            </Array>
          </mxGeometry>
        </mxCell>
        <mxCell id="_rt9f24KzkN2ATSVfUt4-11" value="&lt;font face=&quot;Times New Roman&quot;&gt;Модуль навигации&lt;/font&gt;" style="rounded=1;whiteSpace=wrap;html=1;" vertex="1" parent="1">
          <mxGeometry x="295" y="160" width="130" height="60" as="geometry" />
        </mxCell>
        <mxCell id="_rt9f24KzkN2ATSVfUt4-45" style="edgeStyle=orthogonalEdgeStyle;rounded=0;orthogonalLoop=1;jettySize=auto;html=1;entryX=1;entryY=0.5;entryDx=0;entryDy=0;" edge="1" parent="1" source="_rt9f24KzkN2ATSVfUt4-12" target="_rt9f24KzkN2ATSVfUt4-22">
          <mxGeometry relative="1" as="geometry">
            <Array as="points">
              <mxPoint x="620" y="95" />
              <mxPoint x="620" y="280" />
            </Array>
          </mxGeometry>
        </mxCell>
        <mxCell id="_rt9f24KzkN2ATSVfUt4-12" value="&lt;font face=&quot;Times New Roman&quot;&gt;Модуль загрузки видео&lt;/font&gt;" style="rounded=1;whiteSpace=wrap;html=1;" vertex="1" parent="1">
          <mxGeometry x="470" y="65" width="130" height="60" as="geometry" />
        </mxCell>
        <mxCell id="_rt9f24KzkN2ATSVfUt4-46" style="edgeStyle=orthogonalEdgeStyle;rounded=0;orthogonalLoop=1;jettySize=auto;html=1;entryX=1;entryY=0.5;entryDx=0;entryDy=0;" edge="1" parent="1" source="_rt9f24KzkN2ATSVfUt4-13" target="_rt9f24KzkN2ATSVfUt4-22">
          <mxGeometry relative="1" as="geometry">
            <Array as="points">
              <mxPoint x="620" y="190" />
              <mxPoint x="620" y="280" />
            </Array>
          </mxGeometry>
        </mxCell>
        <mxCell id="_rt9f24KzkN2ATSVfUt4-13" value="&lt;font face=&quot;Times New Roman&quot;&gt;Модуль поточного воспроизведения видео&lt;/font&gt;" style="rounded=1;whiteSpace=wrap;html=1;" vertex="1" parent="1">
          <mxGeometry x="470" y="160" width="130" height="60" as="geometry" />
        </mxCell>
        <mxCell id="_rt9f24KzkN2ATSVfUt4-27" style="edgeStyle=orthogonalEdgeStyle;rounded=0;orthogonalLoop=1;jettySize=auto;html=1;entryX=0.5;entryY=1;entryDx=0;entryDy=0;" edge="1" parent="1" source="_rt9f24KzkN2ATSVfUt4-14" target="_rt9f24KzkN2ATSVfUt4-19">
          <mxGeometry relative="1" as="geometry">
            <Array as="points">
              <mxPoint x="440" y="390" />
              <mxPoint x="440" y="430" />
              <mxPoint x="535" y="430" />
            </Array>
          </mxGeometry>
        </mxCell>
        <mxCell id="_rt9f24KzkN2ATSVfUt4-14" value="&lt;font face=&quot;Times New Roman&quot;&gt;Модуль управления каналами&lt;/font&gt;" style="rounded=1;whiteSpace=wrap;html=1;" vertex="1" parent="1">
          <mxGeometry x="295" y="360" width="130" height="60" as="geometry" />
        </mxCell>
        <mxCell id="_rt9f24KzkN2ATSVfUt4-25" style="edgeStyle=orthogonalEdgeStyle;rounded=0;orthogonalLoop=1;jettySize=auto;html=1;entryX=0;entryY=0.5;entryDx=0;entryDy=0;" edge="1" parent="1" source="_rt9f24KzkN2ATSVfUt4-15" target="_rt9f24KzkN2ATSVfUt4-13">
          <mxGeometry relative="1" as="geometry" />
        </mxCell>
        <mxCell id="_rt9f24KzkN2ATSVfUt4-26" style="edgeStyle=orthogonalEdgeStyle;rounded=0;orthogonalLoop=1;jettySize=auto;html=1;entryX=0;entryY=0.5;entryDx=0;entryDy=0;" edge="1" parent="1" source="_rt9f24KzkN2ATSVfUt4-15" target="_rt9f24KzkN2ATSVfUt4-12">
          <mxGeometry relative="1" as="geometry" />
        </mxCell>
        <mxCell id="_rt9f24KzkN2ATSVfUt4-15" value="&lt;font face=&quot;Times New Roman&quot;&gt;Модуль упраления видео&lt;/font&gt;" style="rounded=1;whiteSpace=wrap;html=1;" vertex="1" parent="1">
          <mxGeometry x="295" y="280" width="130" height="60" as="geometry" />
        </mxCell>
        <mxCell id="_rt9f24KzkN2ATSVfUt4-16" value="&lt;font face=&quot;Times New Roman&quot;&gt;Модуль управления плейлистами&lt;/font&gt;" style="rounded=1;whiteSpace=wrap;html=1;" vertex="1" parent="1">
          <mxGeometry x="120" y="360" width="130" height="60" as="geometry" />
        </mxCell>
        <mxCell id="_rt9f24KzkN2ATSVfUt4-17" value="&lt;font face=&quot;Times New Roman&quot;&gt;Модуль управления комментариями&lt;/font&gt;" style="rounded=1;whiteSpace=wrap;html=1;" vertex="1" parent="1">
          <mxGeometry x="295" y="520" width="130" height="60" as="geometry" />
        </mxCell>
        <mxCell id="_rt9f24KzkN2ATSVfUt4-50" style="edgeStyle=orthogonalEdgeStyle;rounded=0;orthogonalLoop=1;jettySize=auto;html=1;entryX=0;entryY=0.5;entryDx=0;entryDy=0;" edge="1" parent="1" source="_rt9f24KzkN2ATSVfUt4-18" target="_rt9f24KzkN2ATSVfUt4-48">
          <mxGeometry relative="1" as="geometry" />
        </mxCell>
        <mxCell id="_rt9f24KzkN2ATSVfUt4-18" value="&lt;font face=&quot;Times New Roman&quot;&gt;Модуль управления совместным просмотром&lt;/font&gt;" style="rounded=1;whiteSpace=wrap;html=1;" vertex="1" parent="1">
          <mxGeometry x="295" y="595" width="130" height="60" as="geometry" />
        </mxCell>
        <mxCell id="_rt9f24KzkN2ATSVfUt4-19" value="&lt;font face=&quot;Times New Roman&quot;&gt;Модуль управления файловой системой&lt;/font&gt;" style="rounded=1;whiteSpace=wrap;html=1;" vertex="1" parent="1">
          <mxGeometry x="470" y="345" width="130" height="60" as="geometry" />
        </mxCell>
        <mxCell id="_rt9f24KzkN2ATSVfUt4-20" value="&lt;font face=&quot;Times New Roman&quot;&gt;Модуль администрирования&lt;/font&gt;" style="rounded=1;whiteSpace=wrap;html=1;" vertex="1" parent="1">
          <mxGeometry x="120" y="280" width="130" height="60" as="geometry" />
        </mxCell>
        <mxCell id="_rt9f24KzkN2ATSVfUt4-24" style="edgeStyle=orthogonalEdgeStyle;rounded=0;orthogonalLoop=1;jettySize=auto;html=1;" edge="1" parent="1" source="_rt9f24KzkN2ATSVfUt4-22" target="_rt9f24KzkN2ATSVfUt4-19">
          <mxGeometry relative="1" as="geometry" />
        </mxCell>
        <mxCell id="_rt9f24KzkN2ATSVfUt4-22" value="&lt;font face=&quot;Times New Roman&quot;&gt;Модуль хранения видео&lt;/font&gt;" style="rounded=1;whiteSpace=wrap;html=1;" vertex="1" parent="1">
          <mxGeometry x="470" y="250" width="130" height="60" as="geometry" />
        </mxCell>
        <mxCell id="_rt9f24KzkN2ATSVfUt4-41" style="edgeStyle=orthogonalEdgeStyle;rounded=0;orthogonalLoop=1;jettySize=auto;html=1;entryX=0.5;entryY=1;entryDx=0;entryDy=0;" edge="1" parent="1" source="_rt9f24KzkN2ATSVfUt4-29" target="_rt9f24KzkN2ATSVfUt4-19">
          <mxGeometry relative="1" as="geometry">
            <Array as="points">
              <mxPoint x="440" y="470" />
              <mxPoint x="440" y="430" />
              <mxPoint x="535" y="430" />
            </Array>
          </mxGeometry>
        </mxCell>
        <mxCell id="_rt9f24KzkN2ATSVfUt4-29" value="&lt;font face=&quot;Times New Roman&quot;&gt;Модуль управления пользователями&lt;/font&gt;" style="rounded=1;whiteSpace=wrap;html=1;" vertex="1" parent="1">
          <mxGeometry x="295" y="440" width="130" height="60" as="geometry" />
        </mxCell>
        <mxCell id="_rt9f24KzkN2ATSVfUt4-49" style="edgeStyle=orthogonalEdgeStyle;rounded=0;orthogonalLoop=1;jettySize=auto;html=1;entryX=0.5;entryY=0;entryDx=0;entryDy=0;" edge="1" parent="1" source="_rt9f24KzkN2ATSVfUt4-43" target="_rt9f24KzkN2ATSVfUt4-48">
          <mxGeometry relative="1" as="geometry" />
        </mxCell>
        <mxCell id="_rt9f24KzkN2ATSVfUt4-43" value="&lt;font face=&quot;Times New Roman&quot;&gt;Модуль управления подключением (SignalR Hub)&lt;/font&gt;" style="rounded=1;whiteSpace=wrap;html=1;" vertex="1" parent="1">
          <mxGeometry x="455" y="470" width="160" height="60" as="geometry" />
        </mxCell>
        <mxCell id="_rt9f24KzkN2ATSVfUt4-48" value="&lt;font face=&quot;Times New Roman&quot;&gt;Модуль управления лобби совместного просмотра&lt;/font&gt;" style="rounded=1;whiteSpace=wrap;html=1;" vertex="1" parent="1">
          <mxGeometry x="470" y="595" width="130" height="60" as="geometry" />
        </mxCell>
        <mxCell id="_rt9f24KzkN2ATSVfUt4-54" style="edgeStyle=orthogonalEdgeStyle;rounded=0;orthogonalLoop=1;jettySize=auto;html=1;" edge="1" parent="1" source="_rt9f24KzkN2ATSVfUt4-52" target="_rt9f24KzkN2ATSVfUt4-53">
          <mxGeometry relative="1" as="geometry" />
        </mxCell>
        <mxCell id="_rt9f24KzkN2ATSVfUt4-52" value="&lt;font face=&quot;Times New Roman&quot;&gt;Глобальный модуль навигации&lt;/font&gt;" style="rounded=1;whiteSpace=wrap;html=1;" vertex="1" parent="1">
          <mxGeometry x="1070" y="90" width="130" height="60" as="geometry" />
        </mxCell>
        <mxCell id="_rt9f24KzkN2ATSVfUt4-56" style="edgeStyle=orthogonalEdgeStyle;rounded=0;orthogonalLoop=1;jettySize=auto;html=1;" edge="1" parent="1" source="_rt9f24KzkN2ATSVfUt4-53" target="_rt9f24KzkN2ATSVfUt4-55">
          <mxGeometry relative="1" as="geometry" />
        </mxCell>
        <mxCell id="_rt9f24KzkN2ATSVfUt4-53" value="&lt;font face=&quot;Times New Roman&quot;&gt;Модуль навигации по строке запроса&lt;/font&gt;" style="rounded=1;whiteSpace=wrap;html=1;" vertex="1" parent="1">
          <mxGeometry x="1070" y="185" width="130" height="60" as="geometry" />
        </mxCell>
        <mxCell id="_rt9f24KzkN2ATSVfUt4-63" style="edgeStyle=orthogonalEdgeStyle;rounded=0;orthogonalLoop=1;jettySize=auto;html=1;entryX=1;entryY=0.5;entryDx=0;entryDy=0;" edge="1" parent="1" source="_rt9f24KzkN2ATSVfUt4-55" target="_rt9f24KzkN2ATSVfUt4-57">
          <mxGeometry relative="1" as="geometry" />
        </mxCell>
        <mxCell id="_rt9f24KzkN2ATSVfUt4-64" style="edgeStyle=orthogonalEdgeStyle;rounded=0;orthogonalLoop=1;jettySize=auto;html=1;entryX=1;entryY=0.5;entryDx=0;entryDy=0;" edge="1" parent="1" source="_rt9f24KzkN2ATSVfUt4-55" target="_rt9f24KzkN2ATSVfUt4-61">
          <mxGeometry relative="1" as="geometry" />
        </mxCell>
        <mxCell id="_rt9f24KzkN2ATSVfUt4-66" style="edgeStyle=orthogonalEdgeStyle;rounded=0;orthogonalLoop=1;jettySize=auto;html=1;" edge="1" parent="1" source="_rt9f24KzkN2ATSVfUt4-55" target="_rt9f24KzkN2ATSVfUt4-65">
          <mxGeometry relative="1" as="geometry" />
        </mxCell>
        <mxCell id="_rt9f24KzkN2ATSVfUt4-68" style="edgeStyle=orthogonalEdgeStyle;rounded=0;orthogonalLoop=1;jettySize=auto;html=1;entryX=1;entryY=0.5;entryDx=0;entryDy=0;" edge="1" parent="1" source="_rt9f24KzkN2ATSVfUt4-55" target="_rt9f24KzkN2ATSVfUt4-67">
          <mxGeometry relative="1" as="geometry" />
        </mxCell>
        <mxCell id="_rt9f24KzkN2ATSVfUt4-55" value="&lt;font face=&quot;Times New Roman&quot;&gt;Модуль отображения компонентов&lt;/font&gt;" style="rounded=1;whiteSpace=wrap;html=1;" vertex="1" parent="1">
          <mxGeometry x="1070" y="285" width="130" height="60" as="geometry" />
        </mxCell>
        <mxCell id="_rt9f24KzkN2ATSVfUt4-57" value="&lt;font face=&quot;Times New Roman&quot;&gt;Модуль проверки авторизации&lt;/font&gt;" style="rounded=1;whiteSpace=wrap;html=1;" vertex="1" parent="1">
          <mxGeometry x="867" y="90" width="130" height="60" as="geometry" />
        </mxCell>
        <mxCell id="_rt9f24KzkN2ATSVfUt4-61" value="&lt;font face=&quot;Times New Roman&quot;&gt;Модуль глобальных состояний&lt;/font&gt;" style="rounded=1;whiteSpace=wrap;html=1;" vertex="1" parent="1">
          <mxGeometry x="867" y="190" width="130" height="60" as="geometry" />
        </mxCell>
        <mxCell id="_rt9f24KzkN2ATSVfUt4-65" value="&lt;font face=&quot;Times New Roman&quot;&gt;Модуль запроса видео&lt;/font&gt;" style="rounded=1;whiteSpace=wrap;html=1;" vertex="1" parent="1">
          <mxGeometry x="867" y="285" width="130" height="60" as="geometry" />
        </mxCell>
        <mxCell id="_rt9f24KzkN2ATSVfUt4-67" value="&lt;font face=&quot;Times New Roman&quot;&gt;Модуль упалвления соеденением совместного просмотра&lt;/font&gt;" style="rounded=1;whiteSpace=wrap;html=1;" vertex="1" parent="1">
          <mxGeometry x="867" y="380" width="130" height="60" as="geometry" />
        </mxCell>
      </root>
    </mxGraphModel>
  </diagram>
</mxfile>
